HIERARCHY
ROOT Hips
{
  OFFSET 3.13213 102.699 205.733
  CHANNELS 6 Xposition Yposition Zposition Zrotation Xrotation Yrotation
  JOINT RightUpLeg
  {
    OFFSET -8.9458 -8.66707 0.101652
    CHANNELS 3 Zrotation Xrotation Yrotation
    JOINT RightLeg
    {
      OFFSET 0 -44.4227 1.3727
      CHANNELS 3 Zrotation Xrotation Yrotation
      JOINT RightFoot
      {
        OFFSET 0.253549 -42.0924 -1.46059
        CHANNELS 3 Zrotation Xrotation Yrotation
        JOINT RightToes
        {
          OFFSET 0.04 -4.41509 8.4991
          CHANNELS 3 Zrotation Xrotation Yrotation
          End Site
          {
            OFFSET -0.08 -0.137448 9.77979
          }
        }
      }
    }
  }
  JOINT Spine
  {
    OFFSET 0 11.8905 0
    CHANNELS 3 Zrotation Xrotation Yrotation
    JOINT Spine1
    {
      OFFSET 0 25.6574 0.127663
      CHANNELS 3 Zrotation Xrotation Yrotation
      JOINT HEad
      {
        OFFSET 0 8.73416 0.011341
        CHANNELS 3 Zrotation Xrotation Yrotation
        End Site
        {
          OFFSET -0.29 12.7742 2.51395
        }
      }
      JOINT LeftShoulder1
      {
        OFFSET 8.99 -0.362252 -0.22
        CHANNELS 3 Zrotation Xrotation Yrotation
        JOINT LeftArm
        {
          OFFSET 10.2827 -0.00338 0.322123
          CHANNELS 3 Zrotation Xrotation Yrotation
          JOINT LeftForeArm
          {
            OFFSET 32.7669 0.099144 -1.42434
            CHANNELS 3 Zrotation Xrotation Yrotation
            JOINT LeftHand
            {
              OFFSET 27.5643 0.085362 1.02216
              CHANNELS 3 Zrotation Xrotation Yrotation
              End Site
              {
                OFFSET 16.7443 -0.6 1.50291
              }
            }
          }
        }
      }
      JOINT RightShoulder
      {
        OFFSET -8.99 -0.362252 -0.22
        CHANNELS 3 Zrotation Xrotation Yrotation
        JOINT RightArm
        {
          OFFSET -10.2827 -0.00338 0.322123
          CHANNELS 3 Zrotation Xrotation Yrotation
          JOINT RightForeArm
          {
            OFFSET -32.8971 0.099144 -1.42434
            CHANNELS 3 Zrotation Xrotation Yrotation
            JOINT RightHand
            {
              OFFSET -27.4921 0.085362 1.02216
              CHANNELS 3 Zrotation Xrotation Yrotation
              End Site
              {
                OFFSET -16.6312 -0.6 1.50291
              }
            }
          }
        }
      }
    }
  }
  JOINT LeftUpLeg
  {
    OFFSET 8.9458 -8.66707 0.101652
    CHANNELS 3 Zrotation Xrotation Yrotation
    JOINT LeftLeg
    {
      OFFSET 0 -44.4227 1.3727
      CHANNELS 3 Zrotation Xrotation Yrotation
      JOINT LeftFoot
      {
        OFFSET -0.253549 -42.0924 -1.46059
        CHANNELS 3 Zrotation Xrotation Yrotation
        JOINT LeftToes
        {
          OFFSET -0.04 -4.41509 8.4991
          CHANNELS 3 Zrotation Xrotation Yrotation
          End Site
          {
            OFFSET 0.08 -0.047448 9.77979
          }
        }
      }
    }
  }
}
MOTION
Frames:	9
Frame Time:	0.0166667
0.273503 101.56 33.1043 2.10996 2.01106 -173.656 9.91365 -13.8116 10.231 -0.878272 8.72996 -22.8598 -2.02098 8.50723 0.0606423 23.7792 -13.5877 -22.8602 -2.93246 1.85165 0.158575 -0.266186 -2.30553 -0.087858 4.46512 1.36288 -10.5307 -2.13694e-015 -3.97569e-016 1.59028e-015 -91.1124 -2.8911 -24.2194 -22.6525 13.8171 -9.09866 0.368473 9.90896 -0.00117926 11.5668 -2.24807 -15.4596 70.0803 -47.5758 -1.92629 15.2084 11.3127 -6.95877 -0.369625 9.91382 0.00119886 1.9916 8.70676 9.82533 8.87843 33.686 1.21667 -6.0733 -0.869457 0.182526 18.0665 -6.17983 -33.9307 
0.495279 101.623 31.0107 2.71888 2.44975 -173.858 11.018 -12.717 8.94029 -1.0531 9.93131 -21.2179 -2.11178 7.27408 0.0459627 23.6952 -13.6006 -22.7649 -2.80606 1.87822 0.347258 0.55462 -1.9832 -0.0802789 4.29394 1.02889 -10.4434 9.93923e-017 0 -7.95139e-016 -91.3342 -3.20543 -23.3555 -22.6043 13.6064 -8.1284 0.368473 9.90896 -0.00117926 11.3155 -2.25704 -15.6538 70.9218 -47.6035 -0.806723 14.8745 11.3691 -6.74104 -0.369625 9.91382 0.00119886 3.15886 7.45993 11.3228 11.3919 36.9531 0.366504 -6.64912 3.6211 0.455976 28.0626 -1.36164 -44.3747 
0.743095 101.65 29.0171 3.26746 2.89992 -174.008 12.2157 -11.5295 6.6022 -1.67611 10.9191 -18.6293 -2.11892 6.05794 0.0204931 23.5996 -13.8341 -22.6259 -2.57652 1.91177 0.483952 1.16681 -1.46074 -0.0748809 4.29662 0.490451 -10.3786 -5.96354e-016 0 -0 -91.3738 -3.50655 -22.6741 -22.5886 13.3545 -6.96373 0.368473 9.90896 -0.00117926 11.0916 -2.25314 -15.765 72.1566 -47.3913 0.60656 14.6373 11.4348 -6.38153 -0.369625 9.91382 0.00119886 4.34859 5.79067 12.5679 14.0859 40.6346 -1.03245 -6.7787 8.09132 0.718854 36.4805 2.48631 -52.1783 
0.9602 101.632 27.1872 3.76791 3.2081 -173.968 13.2214 -10.5593 4.44644 -2.30229 11.7237 -16.4896 -2.13782 5.15296 0.00112488 23.4414 -14.7888 -22.3149 -2.19337 1.99394 0.569307 1.65776 -1.06932 -0.0745971 4.36984 0.000483653 -10.48 -1.49089e-016 3.97569e-016 -1.59028e-015 -91.3061 -3.63203 -22.2038 -22.7173 13.0474 -5.55792 0.368473 9.90896 -0.00117926 10.7978 -2.20485 -15.6772 73.3485 -46.7599 1.78536 14.8022 11.4839 -5.8712 -0.369625 9.91382 0.00119886 5.33917 3.57253 12.784 16.5165 44.8042 -3.03332 -6.27285 11.2818 0.821286 42.1806 7.00524 -55.8555 
1.15517 101.634 25.4463 4.13169 3.39992 -173.845 13.9932 -9.59583 2.97298 -2.71635 12.2218 -15.14 -2.1734 4.40337 -0.0155596 23.3768 -15.9634 -22.0647 -1.82701 2.07613 0.61998 1.98806 -0.777159 -0.0759402 4.48493 -0.453693 -10.5922 7.95139e-016 0 -7.95139e-016 -91.2104 -3.836 -21.8885 -22.8703 12.6867 -3.90411 0.368473 9.90896 -0.00117926 10.5517 -2.1376 -15.4559 74.5047 -45.9291 2.98815 15.1252 11.5323 -5.26923 -0.369625 9.91382 0.00119886 6.07879 1.04102 12.1933 18.7773 49.1051 -4.56849 -5.5011 13.4055 0.834367 45.0703 11.6563 -56.2442 
1.31598 101.75 23.7407 4.21955 3.42436 -173.683 14.2082 -8.50364 3.62526 -2.34516 12.204 -15.9547 -2.28713 3.7672 -0.0253777 23.5784 -16.9662 -22.1326 -1.69527 2.10722 0.655135 2.10302 -0.701709 -0.0763906 4.57994 -0.790545 -10.5946 -1.49089e-016 7.95139e-016 -0 -91.1983 -4.33762 -21.7183 -22.9755 12.2461 -1.88206 0.368473 9.90896 -0.00117926 10.5087 -2.07475 -15.1361 75.4015 -45.041 4.30701 15.4943 11.5895 -4.60905 -0.369625 9.91382 0.00119886 6.31724 -1.62115 10.487 19.7921 53.3208 -3.49404 -4.91102 14.2159 0.782543 44.7222 16.9106 -52.4937 
1.44768 101.882 22.0714 4.20693 3.35892 -173.532 14.1801 -7.41744 4.76967 -1.77809 11.9928 -17.2501 -2.40474 3.19721 -0.0341684 23.8662 -17.9381 -22.3052 -1.60496 2.13639 0.667886 2.13556 -0.72646 -0.0770703 4.66774 -1.04279 -10.5236 -9.44227e-016 3.97569e-016 -7.95139e-016 -91.2247 -5.08797 -21.5888 -22.9894 11.7914 0.213031 0.368473 9.90896 -0.00117926 10.4573 -1.99061 -14.6922 76.3527 -44.1314 5.75711 15.8187 11.6506 -3.95881 -0.369625 9.91382 0.00119886 6.24143 -4.42404 8.42008 19.8465 57.3054 -0.996112 -4.15345 13.8312 0.65996 40.7214 21.4707 -46.2395 
1.54269 101.953 20.4149 4.2504 3.25586 -173.461 14.2937 -6.43708 5.24411 -1.43822 11.8645 -17.7462 -2.46309 2.63261 -0.0475596 24.1552 -18.952 -22.4635 -1.39379 2.20977 0.653359 2.23029 -0.80357 -0.0778031 4.73598 -1.2247 -10.3307 -2.98177e-016 1.98785e-016 -0 -91.2905 -6.1355 -21.3789 -22.8538 11.39 2.14361 0.368473 9.90896 -0.00117926 10.2096 -1.85751 -14.0787 77.6161 -43.3166 7.37908 15.9515 11.7136 -3.42223 -0.369625 9.91382 0.00119886 6.18465 -7.31124 6.70579 19.689 60.895 2.05882 -2.87067 12.0058 0.44094 34.1857 21.4277 -38.8962 
1.62698 102.001 18.7908 4.26453 3.13966 -173.445 14.4033 -5.50947 5.13886 -1.28452 11.7797 -17.6049 -2.49138 2.07209 -0.0619125 24.3773 -19.8357 -22.5715 -1.18708 2.28539 0.624695 2.29746 -0.844481 -0.0784123 4.79487 -1.30941 -10.1508 7.70291e-016 -5.96354e-016 7.95139e-016 -91.3522 -7.41359 -21.1357 -22.614 11.0457 3.87289 0.368473 9.90896 -0.00117926 9.84668 -1.7035 -13.391 79.1682 -42.4826 9.21033 15.9506 11.781 -2.92643 -0.369625 9.91382 0.00119886 6.01479 -10.1761 5.12801 18.7916 63.8477 5.49727 -1.58872 9.58358 0.226318 26.3398 18.6278 -30.3469 
